Coordinates
version=1
nRows=21
nColumns=12
inDegrees=yes

Units are S.I. units (second, meters, Newtons, ...)
Angles are in degrees

endheader
time	SC_y	SC_z	SC_x	AC_y	AC_z	AC_x	GH_y	GH_z	GH_yy	EL_x	PS_y
       0.0              -46.62          2.266          45.08          48.06          9.786         -5.093         -113.9          28.39          138.1          96.27          11.46
   0.03269              -46.62          2.266          45.08          48.06          9.783         -5.092         -113.9          28.38          138.1          96.26          11.48
   0.06539              -46.61          2.266          45.09          48.06          9.779         -5.092         -113.8          28.38          138.1          96.25          11.49
   0.09808              -46.61          2.266          45.09          48.06          9.776         -5.092         -113.8          28.37          138.1          96.24          11.51
    0.1308              -46.61          2.266          45.09          48.07          9.771         -5.091         -113.8          28.36          138.2          96.23          11.53
    0.1635               -46.6          2.266          45.09          48.07          9.767         -5.091         -113.7          28.36          138.2          96.22          11.54
    0.1962               -46.6          2.267          45.09          48.07          9.763          -5.09         -113.7          28.35          138.2          96.21          11.56
    0.2289              -46.59          2.267          45.09          48.07          9.758          -5.09         -113.6          28.34          138.2           96.2          11.59
    0.2616              -46.59          2.267           45.1          48.08          9.752         -5.089         -113.6          28.33          138.2          96.19          11.61
    0.2943              -46.58          2.267           45.1          48.08          9.747         -5.089         -113.6          28.32          138.2          96.17          11.63
    0.3269              -46.58          2.268           45.1          48.08          9.741         -5.088         -113.5          28.31          138.2          96.16          11.66
    0.3596              -46.57          2.268           45.1          48.08          9.734         -5.087         -113.4           28.3          138.2          96.14          11.69
    0.3923              -46.57          2.268          45.11          48.09          9.727         -5.087         -113.4          28.29          138.2          96.12          11.72
     0.425              -46.56          2.268          45.11          48.09           9.72         -5.086         -113.3          28.27          138.2           96.1          11.75
    0.4577              -46.55          2.269          45.11           48.1          9.711         -5.085         -113.3          28.26          138.2          96.08          11.79
    0.4904              -46.54          2.269          45.12           48.1          9.702         -5.084         -113.2          28.24          138.2          96.06          11.83
    0.5231              -46.53           2.27          45.12          48.11          9.693         -5.083         -113.1          28.23          138.2          96.04          11.87
    0.5558              -46.52           2.27          45.12          48.11          9.682         -5.082         -113.0          28.21          138.2          96.01          11.92
    0.5885              -46.51          2.271          45.13          48.12          9.671         -5.081         -112.9          28.19          138.3          95.98          11.97
    0.6212               -46.5          2.271          45.13          48.12          9.658          -5.08         -112.8          28.17          138.3          95.95          12.02
    0.6539              -46.49          2.272          45.14          48.13          9.644         -5.078         -112.7          28.14          138.3          95.92          12.08
